<svg id="Calque_1" data-name="Calque 1" xmlns="http://www.w3.org/2000/svg" viewBox="0 0 3078.91 2193.57"><defs><style>.cls-1{fill:#e9473f;}.cls-2{fill:#4bb276;}.cls-3{fill:#0c361e;}.cls-4{fill:#ed6b1d;}.cls-5{fill:#b94b96;}.cls-6{fill:#da1a15;}.cls-7{fill:#165628;}.cls-8{font-size:800px;fill:#1d1d1b;font-family:CopperplateGothic-Bold, Copperplate Gothic Bold;font-weight:700;}.cls-9{letter-spacing:-0.01em;}.cls-10{font-size:1000px;font-family:AdoreYou-Regular, Adore You;}</style></defs><path class="cls-1" d="M641.24,1118.82c-116.24,0-207.57,83.09-212.43,193.28-3.15,71.12,27.69,167.75,192.4,224.25,112.14,38.48,110,86.52,109.32,102.31-1.93,43.77-39.51,75.54-89.36,75.54-60,0-83.92-29.74-93.39-54.7l-115.17,43.68c11.93,31.47,62.25,134.19,208.55,134.19,116.24,0,207.57-83.1,212.43-193.28,3.14-71.11-27.68-167.74-192.41-224.26-112.13-38.47-110-86.51-109.31-102.3,1.94-43.76,39.52-75.54,89.36-75.54,60,0,83.92,29.75,93.4,54.7L849.8,1253c-11.93-31.49-62.26-134.2-208.55-134.2" transform="translate(-233.92 -424.21)"/><path class="cls-1" d="M1199.36,1397h0V1644a72.42,72.42,0,1,1-144.83,0V1397H933.59V1644a193.25,193.25,0,0,0,326.23,140.33A192.82,192.82,0,0,1,1199.35,1644V1397" transform="translate(-233.92 -424.21)"/><path class="cls-2" d="M1586.05,1397H1465.11V1644a72.41,72.41,0,1,1-144.81,0v0a192.85,192.85,0,0,1-60.47,140.33A193.25,193.25,0,0,0,1586.05,1644V1397" transform="translate(-233.92 -424.21)"/><path class="cls-3" d="M1320.3,1397H1199.36V1644a192.78,192.78,0,0,0,60.47,140.33A192.85,192.85,0,0,0,1320.3,1644V1397" transform="translate(-233.92 -424.21)"/><path class="cls-4" d="M1875.65,1397.28c-121.48.13-219.92,98.57-220.06,220,0,123.39,99.62,220.05,226.81,220.05,65.62,0,118.25-20.94,175.88-70l-78.37-92.1c-35.72,30.39-63.62,38.79-99.89,38.79a91.13,91.13,0,0,1-51-13.44l-4,1.65-122.5,50.6a215.14,215.14,0,0,1-44-99.17l124.12-51.27v-.12a95.25,95.25,0,0,1,56-76.71,84.41,84.41,0,0,1,34.37-7.19,95.93,95.93,0,0,1,58.58,20.07c.63.54,1.26,1.09,1.88,1.66l121.55-50.2a221.24,221.24,0,0,1,21.41,37.43A219.71,219.71,0,0,0,1875.6,1397.3m201,130.27.22.48-.22-.48m.48,1.06.08.19-.08-.19m.46,1.06.07.16-.07-.16m.39.9.07.18-.07-.18m24.19,57.23-122,50.39,122-50.39" transform="translate(-233.92 -424.21)"/><path class="cls-5" d="M2076.48,1527.34l.1.22-.1-.22m.31.67.26.58-.26-.58m.35.77.37.86-.37-.86m.45,1,.31.74-.31-.74m.39.91.38.89,23.75,56.17-23.75-56.17-.38-.89m-144.45,9.38L1858.79,1571l-71.7,29.61-4.39,1.81c-6,51.44,20.67,79.65,42.57,95.62q1.83,1.35,3.74,2.58L1963.57,1645l16.59-6.85c-.07-.28-14.44-68.57-46.63-98.09" transform="translate(-233.92 -424.21)"/><path class="cls-6" d="M2055.08,1489.92l-121.54,50.21c32.2,29.49,46.57,97.78,46.63,98.09l121.95-50.39-23.75-56.17-.37-.89-.08-.17-.31-.74-.08-.17-.37-.86-.08-.19-.26-.58-.22-.48-.09-.22a220.94,220.94,0,0,0-21.41-37.44m-272.39,112.51-124.13,51.27a215,215,0,0,0,44,99.17l122.5-50.6,4-1.65q-1.9-1.23-3.74-2.57c-21.9-16-48.57-44.18-42.57-95.63" transform="translate(-233.92 -424.21)"/><path class="cls-4" d="M2372.64,1397.28c-121.47.13-219.92,98.57-220,220,0,123.39,99.62,220.05,226.8,220.05,65.62,0,118.25-20.94,175.89-70l-78.38-92.1c-35.72,30.39-63.61,38.79-99.89,38.79a91.13,91.13,0,0,1-51-13.44l-4,1.65-122.5,50.6a215,215,0,0,1-44-99.17l124.13-51.27v-.12a95.23,95.23,0,0,1,56-76.71,84.33,84.33,0,0,1,34.36-7.19,96,96,0,0,1,58.59,20.07c.63.54,1.25,1.09,1.88,1.66l121.54-50.2a220.56,220.56,0,0,1,21.41,37.43,219.7,219.7,0,0,0-200.89-130.07m201,130.27.21.48-.21-.48m.47,1.06.08.19-.08-.19m.46,1.06.08.16-.08-.16m.39.9.08.18-.08-.18m24.19,57.23-122,50.39,122-50.39" transform="translate(-233.92 -424.21)"/><path class="cls-5" d="M2573.48,1527.34l.09.22-.09-.22m.31.67.25.58-.25-.58m.34.77.38.86-.38-.86m.45,1,.32.74-.32-.74m.4.91.37.89,23.75,56.17-23.75-56.17-.37-.89m-144.45,9.38L2355.78,1571l-71.69,29.61-4.39,1.81c-6,51.44,20.66,79.65,42.56,95.62,1.23.9,2.47,1.76,3.74,2.58L2460.56,1645l16.59-6.85c-.06-.28-14.43-68.57-46.63-98.09" transform="translate(-233.92 -424.21)"/><path class="cls-6" d="M2552.08,1489.92l-121.55,50.21c32.2,29.49,46.57,97.78,46.63,98.09l122-50.39-23.75-56.17-.38-.89-.07-.17-.32-.74-.07-.17-.38-.86-.08-.19-.26-.58-.21-.48-.1-.22a220.26,220.26,0,0,0-21.41-37.44M2279.7,1602.43l-124.12,51.27a215,215,0,0,0,44,99.17l122.5-50.6,4-1.65c-1.27-.82-2.51-1.68-3.74-2.57-21.89-16-48.57-44.18-42.56-95.63" transform="translate(-233.92 -424.21)"/><path class="cls-4" d="M2795.6,1137.86H2674.66V1397H2795.6V1137.86m0,380.05H2674.66v200.8A118.48,118.48,0,0,0,2793,1837.06h60.47V1716.12H2795.6V1517.91" transform="translate(-233.92 -424.21)"/><path class="cls-2" d="M2853.49,1397H2795.6v120.94h57.89V1397m-178.83,0h-35.09v120.94h35.09V1397" transform="translate(-233.92 -424.21)"/><polyline class="cls-7" points="2561.68 972.76 2440.74 972.76 2440.74 1093.71 2561.68 1093.71 2561.68 972.76"/><text class="cls-8" transform="translate(0 1993.57)">H<tspan class="cls-9" x="686.33" y="0">O</tspan><tspan x="1365.63" y="0">TEL</tspan></text><text class="cls-10" transform="translate(1305.09 899.99)">my</text></svg>